<mxfile host="Electron" modified="2024-01-03T13:58:22.834Z" agent="Mozilla/5.0 (X11; Linux x86_64) AppleWebKit/537.36 (KHTML, like Gecko) draw.io/22.1.16 Chrome/120.0.6099.109 Electron/28.1.0 Safari/537.36" etag="p9adtZJaWAMc6wNuEUQ-" version="22.1.16" type="device">
  <diagram name="architecture" id="upyRnPl23nfjg_SKPdZG">
    <mxGraphModel dx="2109" dy="1221" grid="1" gridSize="10" guides="1" tooltips="1" connect="1" arrows="1" fold="1" page="1" pageScale="1" pageWidth="850" pageHeight="1100" math="0" shadow="0">
      <root>
        <mxCell id="0" />
        <mxCell id="1" parent="0" />
        <mxCell id="Me1QmHW3ms1EWJTxFv0M-1" value="" style="rounded=0;whiteSpace=wrap;html=1;fillColor=none;strokeColor=none;" vertex="1" parent="1">
          <mxGeometry x="-740" y="290" width="1200" height="370" as="geometry" />
        </mxCell>
        <mxCell id="thMBOXiw5p33X376lAu9-25" value="" style="rounded=1;whiteSpace=wrap;html=1;dashed=1;dashPattern=1 1;" parent="1" vertex="1">
          <mxGeometry x="-60" y="510" width="190" height="140" as="geometry" />
        </mxCell>
        <mxCell id="thMBOXiw5p33X376lAu9-1" value="" style="rounded=1;whiteSpace=wrap;html=1;fillColor=#ffe6cc;strokeColor=#d79b00;arcSize=4;" parent="1" vertex="1">
          <mxGeometry x="-280" y="370" width="250" height="130" as="geometry" />
        </mxCell>
        <mxCell id="thMBOXiw5p33X376lAu9-2" value="api-server" style="rounded=1;whiteSpace=wrap;html=1;fillColor=#ffcd28;gradientColor=#ffa500;strokeColor=#d79b00;" parent="1" vertex="1">
          <mxGeometry x="-270" y="380" width="70" height="40" as="geometry" />
        </mxCell>
        <mxCell id="thMBOXiw5p33X376lAu9-3" value="k3s.service" style="rounded=1;whiteSpace=wrap;html=1;fillColor=#ffcd28;gradientColor=#ffa500;strokeColor=#d79b00;" parent="1" vertex="1">
          <mxGeometry x="-280" y="480" width="250" height="20" as="geometry" />
        </mxCell>
        <mxCell id="thMBOXiw5p33X376lAu9-4" value="kine" style="rounded=1;whiteSpace=wrap;html=1;fillColor=#ffcd28;gradientColor=#ffa500;strokeColor=#d79b00;" parent="1" vertex="1">
          <mxGeometry x="-270" y="430" width="70" height="40" as="geometry" />
        </mxCell>
        <mxCell id="thMBOXiw5p33X376lAu9-5" value="SQLite" style="shape=cylinder3;whiteSpace=wrap;html=1;boundedLbl=1;backgroundOutline=1;size=5;fillColor=#ffcd28;gradientColor=#ffa500;strokeColor=#d79b00;" parent="1" vertex="1">
          <mxGeometry x="-370" y="460" width="60" height="40" as="geometry" />
        </mxCell>
        <mxCell id="thMBOXiw5p33X376lAu9-9" value="kube-proxy" style="rounded=1;whiteSpace=wrap;html=1;fillColor=#ffcd28;gradientColor=#ffa500;strokeColor=#d79b00;" parent="1" vertex="1">
          <mxGeometry x="-190" y="430" width="70" height="40" as="geometry" />
        </mxCell>
        <mxCell id="thMBOXiw5p33X376lAu9-10" value="kubelet" style="rounded=1;whiteSpace=wrap;html=1;fillColor=#ffcd28;gradientColor=#ffa500;strokeColor=#d79b00;" parent="1" vertex="1">
          <mxGeometry x="-110" y="430" width="70" height="40" as="geometry" />
        </mxCell>
        <mxCell id="thMBOXiw5p33X376lAu9-11" value="controller manager" style="rounded=1;whiteSpace=wrap;html=1;fillColor=#ffcd28;gradientColor=#ffa500;strokeColor=#d79b00;" parent="1" vertex="1">
          <mxGeometry x="-190" y="380" width="70" height="40" as="geometry" />
        </mxCell>
        <mxCell id="thMBOXiw5p33X376lAu9-12" value="scheduler" style="rounded=1;whiteSpace=wrap;html=1;fillColor=#ffcd28;gradientColor=#ffa500;strokeColor=#d79b00;" parent="1" vertex="1">
          <mxGeometry x="-110" y="380" width="70" height="40" as="geometry" />
        </mxCell>
        <mxCell id="thMBOXiw5p33X376lAu9-13" value="" style="endArrow=classic;html=1;rounded=1;entryX=0.5;entryY=0;entryDx=0;entryDy=0;entryPerimeter=0;exitX=0;exitY=0.25;exitDx=0;exitDy=0;edgeStyle=orthogonalEdgeStyle;curved=0;" parent="1" source="thMBOXiw5p33X376lAu9-4" target="thMBOXiw5p33X376lAu9-5" edge="1">
          <mxGeometry width="50" height="50" relative="1" as="geometry">
            <mxPoint x="-250" y="520" as="sourcePoint" />
            <mxPoint x="-200" y="470" as="targetPoint" />
          </mxGeometry>
        </mxCell>
        <mxCell id="thMBOXiw5p33X376lAu9-15" value="containerd" style="rounded=1;whiteSpace=wrap;html=1;fillColor=#ffcd28;gradientColor=#ffa500;strokeColor=#d79b00;" parent="1" vertex="1">
          <mxGeometry y="470" width="70" height="40" as="geometry" />
        </mxCell>
        <mxCell id="thMBOXiw5p33X376lAu9-16" value="" style="endArrow=classic;html=1;rounded=1;entryX=0.5;entryY=0;entryDx=0;entryDy=0;exitX=1;exitY=0.25;exitDx=0;exitDy=0;edgeStyle=orthogonalEdgeStyle;curved=0;" parent="1" source="thMBOXiw5p33X376lAu9-10" target="thMBOXiw5p33X376lAu9-15" edge="1">
          <mxGeometry width="50" height="50" relative="1" as="geometry">
            <mxPoint x="-160" y="540" as="sourcePoint" />
            <mxPoint x="-110" y="490" as="targetPoint" />
          </mxGeometry>
        </mxCell>
        <mxCell id="thMBOXiw5p33X376lAu9-19" value="coredns" style="aspect=fixed;sketch=0;html=1;dashed=0;whitespace=wrap;fillColor=#ffcd28;strokeColor=#d79b00;points=[[0.005,0.63,0],[0.1,0.2,0],[0.9,0.2,0],[0.5,0,0],[0.995,0.63,0],[0.72,0.99,0],[0.5,1,0],[0.28,0.99,0]];shape=mxgraph.kubernetes.icon2;prIcon=pod;gradientColor=#ffa500;verticalAlign=bottom;spacingBottom=-15;" parent="1" vertex="1">
          <mxGeometry x="-50" y="520" width="50" height="48" as="geometry" />
        </mxCell>
        <mxCell id="thMBOXiw5p33X376lAu9-21" value="kubectl" style="rounded=1;whiteSpace=wrap;html=1;fillColor=#e6d0de;gradientColor=#d5739d;strokeColor=#996185;" parent="1" vertex="1">
          <mxGeometry x="-370" y="300" width="70" height="40" as="geometry" />
        </mxCell>
        <mxCell id="thMBOXiw5p33X376lAu9-22" value="" style="endArrow=classic;html=1;rounded=1;exitX=1;exitY=0.5;exitDx=0;exitDy=0;entryX=0.5;entryY=0;entryDx=0;entryDy=0;edgeStyle=orthogonalEdgeStyle;curved=0;" parent="1" source="thMBOXiw5p33X376lAu9-21" target="thMBOXiw5p33X376lAu9-2" edge="1">
          <mxGeometry width="50" height="50" relative="1" as="geometry">
            <mxPoint x="-160" y="540" as="sourcePoint" />
            <mxPoint x="-110" y="490" as="targetPoint" />
          </mxGeometry>
        </mxCell>
        <mxCell id="thMBOXiw5p33X376lAu9-23" value="traefik" style="aspect=fixed;sketch=0;html=1;dashed=0;whitespace=wrap;fillColor=#ffcd28;strokeColor=#d79b00;points=[[0.005,0.63,0],[0.1,0.2,0],[0.9,0.2,0],[0.5,0,0],[0.995,0.63,0],[0.72,0.99,0],[0.5,1,0],[0.28,0.99,0]];shape=mxgraph.kubernetes.icon2;prIcon=pod;gradientColor=#ffa500;verticalAlign=bottom;spacingBottom=-15;" parent="1" vertex="1">
          <mxGeometry x="10" y="520" width="50" height="48" as="geometry" />
        </mxCell>
        <mxCell id="thMBOXiw5p33X376lAu9-24" value="..." style="aspect=fixed;sketch=0;html=1;dashed=0;whitespace=wrap;fillColor=#ffcd28;strokeColor=#d79b00;points=[[0.005,0.63,0],[0.1,0.2,0],[0.9,0.2,0],[0.5,0,0],[0.995,0.63,0],[0.72,0.99,0],[0.5,1,0],[0.28,0.99,0]];shape=mxgraph.kubernetes.icon2;prIcon=pod;gradientColor=#ffa500;verticalAlign=bottom;spacingBottom=-15;" parent="1" vertex="1">
          <mxGeometry x="70" y="520" width="50" height="48" as="geometry" />
        </mxCell>
        <mxCell id="thMBOXiw5p33X376lAu9-26" value="application&lt;br&gt;pods" style="aspect=fixed;sketch=0;html=1;dashed=0;whitespace=wrap;fillColor=#dae8fc;strokeColor=#6c8ebf;points=[[0.005,0.63,0],[0.1,0.2,0],[0.9,0.2,0],[0.5,0,0],[0.995,0.63,0],[0.72,0.99,0],[0.5,1,0],[0.28,0.99,0]];shape=mxgraph.kubernetes.icon2;prIcon=pod;gradientColor=#7ea6e0;verticalAlign=bottom;spacingBottom=-15;" parent="1" vertex="1">
          <mxGeometry x="-20" y="586" width="50" height="48" as="geometry" />
        </mxCell>
        <mxCell id="thMBOXiw5p33X376lAu9-27" value="application&lt;br&gt;pods" style="aspect=fixed;sketch=0;html=1;dashed=0;whitespace=wrap;fillColor=#dae8fc;strokeColor=#6c8ebf;points=[[0.005,0.63,0],[0.1,0.2,0],[0.9,0.2,0],[0.5,0,0],[0.995,0.63,0],[0.72,0.99,0],[0.5,1,0],[0.28,0.99,0]];shape=mxgraph.kubernetes.icon2;prIcon=pod;gradientColor=#7ea6e0;verticalAlign=bottom;spacingBottom=-15;" parent="1" vertex="1">
          <mxGeometry x="50" y="586" width="50" height="48" as="geometry" />
        </mxCell>
      </root>
    </mxGraphModel>
  </diagram>
</mxfile>
